<?xml version="1.0" standalone="no"?>
<!DOCTYPE svg PUBLIC "-//W3C//DTD SVG 20010904//EN"
 "http://www.w3.org/TR/2001/REC-SVG-20010904/DTD/svg10.dtd">
<svg version="1.0" xmlns="http://www.w3.org/2000/svg"
 width="525.000000pt" height="525.000000pt" viewBox="0 0 525.000000 525.000000"
 preserveAspectRatio="xMidYMid meet">
<metadata>
Created by potrace 1.11, written by Peter Selinger 2001-2013
</metadata>
<g transform="translate(0.000000,525.000000) scale(0.100000,-0.100000)"
fill="#000000" stroke="none">
<path d="M0 2625 l0 -2625 2625 0 2625 0 0 2625 0 2625 -2625 0 -2625 0 0
-2625z m3998 1248 c-13 -23 -82 -102 -153 -175 -72 -73 -315 -322 -540 -553
-225 -231 -439 -450 -476 -487 -97 -100 -134 -90 -133 36 0 141 -24 113 687
817 l632 626 3 -110 c2 -99 0 -115 -20 -154z m-1732 -976 c1 -137 106 -267
216 -267 16 0 28 -4 26 -9 -7 -20 -220 -270 -289 -340 -98 -98 -162 -145 -232
-171 -123 -46 -176 -134 -132 -220 51 -99 196 -93 247 10 10 19 29 62 43 95
21 48 48 81 136 168 60 59 115 107 121 107 6 0 2 -10 -9 -22 -35 -38 -80 -127
-128 -253 -49 -127 -80 -183 -124 -221 -112 -97 -254 -92 -352 13 -47 50 -62
76 -88 152 -30 86 -54 131 -88 163 -65 62 -167 65 -230 6 -30 -28 -37 -19 -23
31 26 98 138 189 330 266 146 59 246 113 322 172 91 71 124 123 216 336 12 26
25 47 29 47 4 0 8 -28 9 -63z"/>
</g>
</svg>
